<svg xmlns="http://www.w3.org/2000/svg" xmlns:xlink="http://www.w3.org/1999/xlink" width="1147" height="1147" xmlns:v="https://vecta.io/nano"><path fill="#fff" d="M0 0h1147v1147H0z"/><g fill="#9f9fa1"><path d="M403 65.72L430.28 62 434 89.28 406.72 93z"/><use xlink:href="#B"/><use xlink:href="#B" x="31"/><path d="M502.82 62L496 86.18 520.18 93 527 68.82z"/><use xlink:href="#C"/><use xlink:href="#B" x="155"/><use xlink:href="#B" x="186"/><use xlink:href="#B" x="217"/><use xlink:href="#B" x="248"/><use xlink:href="#B" x="279"/><path d="M750.82 62L744 86.18 768.18 93 775 68.82zM806 66.65L832.35 62 837 88.35 810.65 93zM310 96.72L337.28 93l3.72 27.28-27.28 3.72z"/><use xlink:href="#B" x="-93" y="31"/><use xlink:href="#B" x="-62" y="31"/><path d="M403 98.27L428.73 93l5.27 25.73-25.73 5.27z"/><use xlink:href="#D"/><use xlink:href="#B" x="217" y="31"/><use xlink:href="#B" x="279" y="31"/><path d="M744 98.27L769.73 93l5.27 25.73-25.73 5.27z"/><use xlink:href="#B" x="-124" y="62"/><use xlink:href="#D" x="-124" y="31"/><use xlink:href="#E"/><use xlink:href="#F"/><use xlink:href="#B" x="217" y="62"/><use xlink:href="#B" x="279" y="62"/><use xlink:href="#G"/><use xlink:href="#B" x="-124" y="93"/><use xlink:href="#H"/><use xlink:href="#D" x="31" y="62"/><use xlink:href="#E" x="62" y="31"/><use xlink:href="#B" x="186" y="93"/><use xlink:href="#B" x="217" y="93"/><use xlink:href="#B" x="248" y="93"/><use xlink:href="#B" x="279" y="93"/><use xlink:href="#E" x="248" y="31"/><use xlink:href="#B" x="372" y="93"/><use xlink:href="#B" x="-124" y="124"/><use xlink:href="#B" x="-93" y="124"/><use xlink:href="#B" x="-62" y="124"/><path d="M409.82 186L403 210.18l24.18 6.82 6.82-24.18z"/><use xlink:href="#H" x="31" y="31"/><use xlink:href="#C" y="124"/><use xlink:href="#B" x="155" y="124"/><use xlink:href="#B" x="186" y="124"/><path d="M717.03 186L713 212.97l26.97 4.03 4.03-26.97z"/><use xlink:href="#B" x="310" y="124"/><use xlink:href="#B" x="341" y="124"/><use xlink:href="#B" x="372" y="124"/><use xlink:href="#B" x="-124" y="155"/><use xlink:href="#I"/><use xlink:href="#D" x="-93" y="124"/><use xlink:href="#H" x="93" y="62"/><use xlink:href="#B" x="186" y="155"/><use xlink:href="#B" x="310" y="155"/><use xlink:href="#B" x="372" y="155"/><use xlink:href="#D" x="-186" y="155"/><use xlink:href="#G" x="-434" y="124"/><use xlink:href="#G" x="-372" y="124"/><use xlink:href="#G" x="-310" y="124"/><use xlink:href="#G" x="-248" y="124"/><use xlink:href="#D" x="124" y="155"/><use xlink:href="#G" x="-124" y="124"/><use xlink:href="#B" x="310" y="186"/><use xlink:href="#D" x="310" y="155"/><use xlink:href="#B" x="-62" y="217"/><use xlink:href="#B" y="217"/><use xlink:href="#B" x="31" y="217"/><use xlink:href="#I" x="155" y="62"/><use xlink:href="#D" x="62" y="186"/><use xlink:href="#B" x="248" y="217"/><use xlink:href="#B" x="310" y="217"/><use xlink:href="#G" x="-682" y="186"/><use xlink:href="#E" x="-310" y="186"/><use xlink:href="#B" x="-186" y="248"/><use xlink:href="#B" x="-155" y="248"/><use xlink:href="#B" x="-124" y="248"/><use xlink:href="#B" x="-93" y="248"/><use xlink:href="#B" x="-62" y="248"/><path d="M438.03 310L434 336.97l26.97 4.03 4.03-26.97z"/><use xlink:href="#B" x="31" y="248"/><use xlink:href="#G" x="-279" y="186"/><use xlink:href="#B" x="248" y="248"/><path d="M748.03 310L744 336.97l26.97 4.03 4.03-26.97z"/><use xlink:href="#B" x="341" y="248"/><use xlink:href="#B" x="372" y="248"/><path d="M843.82 310L837 334.18l24.18 6.82 6.82-24.18z"/><use xlink:href="#E" x="372" y="186"/><use xlink:href="#B" x="496" y="248"/><use xlink:href="#B" x="527" y="248"/><use xlink:href="#B" x="558" y="248"/><use xlink:href="#F" x="465" y="186"/><path d="M62 342.55L91.45 341 93 370.45 63.55 372z"/><use xlink:href="#B" x="-310" y="279"/><use xlink:href="#B" x="-279" y="279"/><use xlink:href="#B" x="-248" y="279"/><use xlink:href="#I" x="-124" y="124"/><use xlink:href="#D" x="-124" y="248"/><use xlink:href="#D" x="-31" y="248"/><use xlink:href="#B" x="93" y="279"/><use xlink:href="#B" x="248" y="279"/><use xlink:href="#F" x="155" y="217"/><use xlink:href="#B" x="341" y="279"/><use xlink:href="#B" x="372" y="279"/><use xlink:href="#B" x="403" y="279"/><use xlink:href="#B" x="434" y="279"/><use xlink:href="#B" x="465" y="279"/><path d="M965.03 341L961 367.97l26.97 4.03 4.03-26.97z"/><use xlink:href="#I" x="651" y="124"/><use xlink:href="#G" x="248" y="217"/><path d="M66.03 372L62 398.97 88.97 403 93 376.03z"/><use xlink:href="#B" x="-341" y="310"/><use xlink:href="#I" x="-217" y="155"/><use xlink:href="#D" x="-310" y="279"/><use xlink:href="#H" x="-186" y="217"/><use xlink:href="#H" x="-124" y="217"/><use xlink:href="#G" x="-403" y="248"/><use xlink:href="#B" x="93" y="310"/><use xlink:href="#B" x="124" y="310"/><use xlink:href="#F" x="31" y="248"/><use xlink:href="#B" x="248" y="310"/><use xlink:href="#B" x="341" y="310"/><use xlink:href="#B" x="465" y="310"/><use xlink:href="#F" x="372" y="248"/><use xlink:href="#B" x="620" y="310"/><use xlink:href="#D" x="-403" y="310"/><use xlink:href="#H" x="-279" y="248"/><use xlink:href="#H" x="-217" y="248"/><use xlink:href="#G" x="-527" y="279"/><use xlink:href="#G" x="-465" y="279"/><use xlink:href="#B" x="-31" y="341"/><path d="M440.82 403L434 427.18l24.18 6.82 6.82-24.18z"/><use xlink:href="#D" x="31" y="310"/><use xlink:href="#C" x="62" y="341"/><use xlink:href="#B" x="217" y="341"/><use xlink:href="#B" x="248" y="341"/><path d="M719.82 403L713 427.18l24.18 6.82 6.82-24.18z"/><use xlink:href="#B" x="341" y="341"/><use xlink:href="#E" x="341" y="279"/><use xlink:href="#B" x="465" y="341"/><use xlink:href="#G" x="155" y="279"/><use xlink:href="#B" x="620" y="341"/><use xlink:href="#H" x="-310" y="279"/><use xlink:href="#H" x="-248" y="279"/><use xlink:href="#C" x="-310" y="372"/><use xlink:href="#B" x="-155" y="372"/><use xlink:href="#B" x="-124" y="372"/><use xlink:href="#B" x="-93" y="372"/><path d="M407.03 434L403 460.97l26.97 4.03 4.03-26.97z"/><use xlink:href="#B" y="372"/><use xlink:href="#B" x="31" y="372"/><use xlink:href="#F" x="-62" y="310"/><use xlink:href="#E" x="31" y="310"/><use xlink:href="#F" x="31" y="310"/><use xlink:href="#B" x="248" y="372"/><use xlink:href="#B" x="279" y="372"/><use xlink:href="#B" x="341" y="372"/><path d="M812.82 434L806 458.18l24.18 6.82 6.82-24.18z"/><use xlink:href="#B" x="434" y="372"/><use xlink:href="#B" x="465" y="372"/><use xlink:href="#B" x="496" y="372"/><use xlink:href="#B" x="527" y="372"/><use xlink:href="#C" x="465" y="372"/><use xlink:href="#B" x="620" y="372"/><use xlink:href="#C" x="-496" y="403"/><use xlink:href="#F" x="-465" y="341"/><use xlink:href="#G" x="-651" y="341"/><use xlink:href="#B" x="-124" y="403"/><use xlink:href="#B" x="-93" y="403"/><use xlink:href="#B" y="403"/><use xlink:href="#B" x="31" y="403"/><use xlink:href="#D" x="62" y="372"/><path d="M686.03 465L682 491.97l26.97 4.03 4.03-26.97z"/><use xlink:href="#I" x="372" y="248"/><use xlink:href="#B" x="341" y="403"/><use xlink:href="#B" x="372" y="403"/><use xlink:href="#B" x="403" y="403"/><use xlink:href="#B" x="434" y="403"/><use xlink:href="#B" x="465" y="403"/><use xlink:href="#B" x="496" y="403"/><use xlink:href="#I" x="620" y="248"/><use xlink:href="#B" x="620" y="403"/><use xlink:href="#D" x="-341" y="403"/><use xlink:href="#H" x="-186" y="341"/><path d="M314.03 496L310 522.97l26.97 4.03 4.03-26.97z"/><use xlink:href="#B" x="-93" y="434"/><use xlink:href="#C" x="-155" y="434"/><use xlink:href="#B" y="434"/><use xlink:href="#B" x="31" y="434"/><use xlink:href="#B" x="62" y="434"/><use xlink:href="#F" x="-31" y="372"/><use xlink:href="#H" x="155" y="341"/><use xlink:href="#G" x="-155" y="372"/><path d="M779.03 496L775 522.97l26.97 4.03 4.03-26.97z"/><use xlink:href="#B" x="372" y="434"/><path d="M872.03 496L868 522.97l26.97 4.03 4.03-26.97z"/><use xlink:href="#B" x="465" y="434"/><use xlink:href="#H" x="558" y="341"/><use xlink:href="#D" x="558" y="403"/><path d="M93 531.65l26.35-4.65 4.65 26.35L97.65 558z"/><use xlink:href="#H" x="-248" y="372"/><use xlink:href="#B" x="-93" y="465"/><path d="M378.82 527L372 551.18l24.18 6.82 6.82-24.18z"/><use xlink:href="#C" x="62" y="465"/><use xlink:href="#I" x="310" y="310"/><use xlink:href="#G" x="-62" y="403"/><use xlink:href="#D" x="310" y="434"/><path d="M903.03 527L899 553.97l26.97 4.03 4.03-26.97z"/><use xlink:href="#F" x="372" y="403"/><use xlink:href="#H" x="-279" y="403"/><use xlink:href="#C" x="-310" y="496"/><path d="M285.82 558L279 582.18l24.18 6.82 6.82-24.18z"/><use xlink:href="#B" x="-93" y="496"/><use xlink:href="#B" x="-62" y="496"/><path d="M409.82 558L403 582.18l24.18 6.82 6.82-24.18z"/><use xlink:href="#G" x="-341" y="434"/><use xlink:href="#H" x="124" y="403"/><use xlink:href="#G" x="-124" y="434"/><path d="M748.03 558L744 584.97l26.97 4.03 4.03-26.97zm33.79 0L775 582.18l24.18 6.82 6.82-24.18z"/><use xlink:href="#G" x="62" y="434"/><use xlink:href="#H" x="527" y="403"/><path d="M93 593.65l26.35-4.65 4.65 26.35L97.65 620z"/><use xlink:href="#D" x="-217" y="496"/><use xlink:href="#B" x="-93" y="527"/><use xlink:href="#B" x="-31" y="527"/><use xlink:href="#B" x="31" y="527"/><use xlink:href="#H" x="93" y="434"/><use xlink:href="#C" x="31" y="527"/><use xlink:href="#B" x="186" y="527"/><use xlink:href="#B" x="217" y="527"/><use xlink:href="#B" x="248" y="527"/><use xlink:href="#F" x="155" y="465"/><use xlink:href="#B" x="341" y="527"/><use xlink:href="#B" x="434" y="527"/><use xlink:href="#F" x="341" y="465"/><use xlink:href="#E" x="465" y="465"/><use xlink:href="#B" x="589" y="527"/><path d="M1060.82 589l-6.82 24.18 24.18 6.82 6.82-24.18z"/><use xlink:href="#H" x="-279" y="465"/><use xlink:href="#H" x="-186" y="465"/><use xlink:href="#B" x="-93" y="558"/><use xlink:href="#B" x="-31" y="558"/><path d="M469.03 620L465 646.97l26.97 4.03 4.03-26.97z"/><use xlink:href="#F" x="-62" y="496"/><use xlink:href="#H" x="124" y="465"/><use xlink:href="#B" x="341" y="558"/><use xlink:href="#E" x="310" y="496"/><use xlink:href="#I" x="527" y="403"/><use xlink:href="#E" x="434" y="496"/><use xlink:href="#I" x="651" y="403"/><use xlink:href="#D" x="558" y="527"/><path d="M62 655.65L88.35 651 93 677.35 66.65 682z"/><use xlink:href="#G" x="-589" y="527"/><use xlink:href="#B" x="-93" y="589"/><use xlink:href="#D" x="-93" y="558"/><use xlink:href="#H" x="93" y="496"/><use xlink:href="#G" x="-217" y="527"/><use xlink:href="#B" x="341" y="589"/><use xlink:href="#B" x="403" y="589"/><use xlink:href="#E" x="372" y="527"/><use xlink:href="#B" x="496" y="589"/><use xlink:href="#I" x="620" y="434"/><use xlink:href="#H" x="589" y="496"/><path d="M93 683.55l29.45-1.55 1.55 29.45L94.55 713z"/><use xlink:href="#E" x="-341" y="558"/><use xlink:href="#B" x="-217" y="620"/><use xlink:href="#B" x="-186" y="620"/><use xlink:href="#F" x="-279" y="558"/><use xlink:href="#B" x="-93" y="620"/><use xlink:href="#H" x="62" y="527"/><use xlink:href="#D" x="93" y="589"/><use xlink:href="#G" x="-124" y="558"/><path d="M779.03 682L775 708.97l26.97 4.03 4.03-26.97z"/><use xlink:href="#B" x="372" y="620"/><use xlink:href="#B" x="403" y="620"/><use xlink:href="#B" x="434" y="620"/><use xlink:href="#I" x="558" y="465"/><use xlink:href="#G" x="248" y="558"/><use xlink:href="#B" x="-341" y="651"/><path d="M130.82 713L124 737.18l24.18 6.82 6.82-24.18z"/><use xlink:href="#B" x="-248" y="651"/><use xlink:href="#C" x="-248" y="651"/><use xlink:href="#B" x="-93" y="651"/><use xlink:href="#H" x="-31" y="558"/><use xlink:href="#G" x="-279" y="589"/><use xlink:href="#C" x="62" y="651"/><use xlink:href="#B" x="217" y="651"/><use xlink:href="#B" x="248" y="651"/><use xlink:href="#B" x="279" y="651"/><use xlink:href="#F" x="186" y="589"/><use xlink:href="#B" x="372" y="651"/><use xlink:href="#B" x="403" y="651"/><use xlink:href="#C" x="403" y="651"/><use xlink:href="#F" x="434" y="589"/><use xlink:href="#B" x="620" y="651"/><use xlink:href="#C" x="-496" y="682"/><use xlink:href="#B" x="-341" y="682"/><use xlink:href="#B" x="-310" y="682"/><use xlink:href="#B" x="-279" y="682"/><use xlink:href="#B" x="-248" y="682"/><use xlink:href="#B" x="-217" y="682"/><use xlink:href="#F" x="-310" y="620"/><path d="M345.03 744L341 770.97l26.97 4.03 4.03-26.97z"/><use xlink:href="#F" x="-186" y="620"/><use xlink:href="#B" x="93" y="682"/><path d="M564.82 744L558 768.18l24.18 6.82 6.82-24.18z"/><use xlink:href="#B" x="217" y="682"/><use xlink:href="#B" x="372" y="682"/><use xlink:href="#B" x="403" y="682"/><use xlink:href="#F" x="310" y="620"/><use xlink:href="#B" x="620" y="682"/><use xlink:href="#B" x="-310" y="713"/><use xlink:href="#H" x="-155" y="620"/><use xlink:href="#C" x="-155" y="713"/><use xlink:href="#B" y="713"/><path d="M471.82 775L465 799.18l24.18 6.82 6.82-24.18z"/><use xlink:href="#B" x="93" y="713"/><use xlink:href="#B" x="124" y="713"/><use xlink:href="#B" x="155" y="713"/><use xlink:href="#B" x="186" y="713"/><use xlink:href="#B" x="217" y="713"/><path d="M688.82 775L682 799.18l24.18 6.82 6.82-24.18z"/><use xlink:href="#C" x="217" y="713"/><use xlink:href="#B" x="372" y="713"/><use xlink:href="#G" x="155" y="651"/><use xlink:href="#B" x="620" y="713"/><use xlink:href="#C" x="-496" y="744"/><use xlink:href="#B" x="-341" y="744"/><use xlink:href="#B" x="-310" y="744"/><use xlink:href="#B" x="-279" y="744"/><use xlink:href="#B" x="-248" y="744"/><use xlink:href="#B" x="-217" y="744"/><use xlink:href="#F" x="-310" y="682"/><use xlink:href="#E" x="-217" y="682"/><use xlink:href="#F" x="-217" y="682"/><use xlink:href="#B" x="31" y="744"/><path d="M531.03 806L527 832.97l26.97 4.03 4.03-26.97z"/><use xlink:href="#B" x="124" y="744"/><use xlink:href="#B" x="155" y="744"/><use xlink:href="#D" x="186" y="713"/><use xlink:href="#B" x="372" y="744"/><use xlink:href="#B" x="403" y="744"/><use xlink:href="#B" x="434" y="744"/><use xlink:href="#B" x="465" y="744"/><use xlink:href="#B" x="496" y="744"/><use xlink:href="#I" x="620" y="589"/><use xlink:href="#E" x="496" y="682"/><use xlink:href="#B" x="620" y="744"/><use xlink:href="#B" x="-124" y="775"/><use xlink:href="#H" x="-31" y="682"/><use xlink:href="#B" x="31" y="775"/><use xlink:href="#F" x="-62" y="713"/><use xlink:href="#B" x="155" y="775"/><use xlink:href="#H" x="217" y="682"/><use xlink:href="#C" x="217" y="775"/><use xlink:href="#B" x="372" y="775"/><use xlink:href="#B" x="496" y="775"/><use xlink:href="#J"/><use xlink:href="#B" x="620" y="775"/><use xlink:href="#B" x="-124" y="806"/><use xlink:href="#B" x="31" y="806"/><use xlink:href="#C" y="806"/><use xlink:href="#I" x="248" y="651"/><use xlink:href="#E" x="155" y="744"/><use xlink:href="#B" x="279" y="806"/><path d="M750.82 868L744 892.18l24.18 6.82 6.82-24.18z"/><use xlink:href="#B" x="372" y="806"/><use xlink:href="#H" x="434" y="713"/><use xlink:href="#B" x="496" y="806"/><path d="M967.82 868L961 892.18l24.18 6.82 6.82-24.18z"/><use xlink:href="#B" x="620" y="806"/><path d="M314.03 899L310 925.97l26.97 4.03 4.03-26.97zm33.79 0L341 923.18l24.18 6.82 6.82-24.18z"/><use xlink:href="#C" x="-155" y="837"/><use xlink:href="#B" y="837"/><use xlink:href="#B" x="31" y="837"/><use xlink:href="#E" x="124" y="775"/><use xlink:href="#I" x="341" y="682"/><use xlink:href="#B" x="310" y="837"/><use xlink:href="#B" x="341" y="837"/><use xlink:href="#B" x="372" y="837"/><use xlink:href="#B" x="496" y="837"/><use xlink:href="#B" x="527" y="837"/><use xlink:href="#C" x="465" y="837"/><use xlink:href="#I" x="713" y="682"/><use xlink:href="#D" x="-155" y="837"/><use xlink:href="#B" y="868"/><use xlink:href="#B" x="31" y="868"/><use xlink:href="#E" y="806"/><use xlink:href="#B" x="124" y="868"/><use xlink:href="#F" x="31" y="806"/><use xlink:href="#D" x="155" y="837"/><use xlink:href="#E" x="186" y="806"/><use xlink:href="#B" x="310" y="868"/><use xlink:href="#B" x="341" y="868"/><use xlink:href="#B" x="372" y="868"/><use xlink:href="#B" x="403" y="868"/><use xlink:href="#B" x="434" y="868"/><use xlink:href="#B" x="465" y="868"/><use xlink:href="#B" x="496" y="868"/><use xlink:href="#B" x="527" y="868"/><use xlink:href="#B" y="899"/><use xlink:href="#B" x="31" y="899"/><use xlink:href="#B" x="62" y="899"/><use xlink:href="#B" x="93" y="899"/><use xlink:href="#B" x="124" y="899"/><use xlink:href="#H" x="186" y="806"/><path d="M717.03 961L713 987.97l26.97 4.03 4.03-26.97z"/><use xlink:href="#B" x="310" y="899"/><use xlink:href="#B" x="341" y="899"/><use xlink:href="#D" x="341" y="868"/><path d="M903.03 961L899 987.97l26.97 4.03 4.03-26.97z"/><use xlink:href="#B" x="496" y="899"/><use xlink:href="#B" x="527" y="899"/><use xlink:href="#B" x="558" y="899"/><path d="M1029.82 961l-6.82 24.18 24.18 6.82 6.82-24.18z"/><use xlink:href="#C" x="-248" y="930"/><path d="M347.82 992l-6.82 24.18 24.18 6.82 6.82-24.18z"/><use xlink:href="#J" x="-589" y="155"/><use xlink:href="#B" x="31" y="930"/><use xlink:href="#B" x="62" y="930"/><use xlink:href="#B" x="93" y="930"/><use xlink:href="#B" x="124" y="930"/><use xlink:href="#F" x="31" y="868"/><use xlink:href="#H" x="248" y="837"/><use xlink:href="#B" x="310" y="930"/><use xlink:href="#B" x="341" y="930"/><use xlink:href="#D" x="434" y="899"/><use xlink:href="#J" y="155"/><use xlink:href="#F" x="496" y="868"/><use xlink:href="#B" x="-93" y="961"/><use xlink:href="#F" x="-186" y="899"/><use xlink:href="#J" x="-558" y="186"/><use xlink:href="#I" x="155" y="806"/><use xlink:href="#B" x="124" y="961"/><use xlink:href="#H" x="217" y="868"/><use xlink:href="#J" x="-279" y="186"/><use xlink:href="#B" x="341" y="961"/><path d="M812.82 1023l-6.82 24.18 24.18 6.82 6.82-24.18z"/><use xlink:href="#D" x="-155" y="961"/><use xlink:href="#C" x="-155" y="992"/><use xlink:href="#F" x="-124" y="930"/><use xlink:href="#C" x="-31" y="992"/><use xlink:href="#B" x="124" y="992"/><use xlink:href="#B" x="155" y="992"/><use xlink:href="#F" x="62" y="930"/><use xlink:href="#H" x="248" y="899"/><use xlink:href="#D" x="310" y="961"/><use xlink:href="#C" x="372" y="992"/><use xlink:href="#B" x="527" y="992"/><use xlink:href="#F" x="434" y="930"/><use xlink:href="#H" x="620" y="899"/><path d="M276.852 108.552c0-7.056-4.54-13.037-10.856-15.218 6.317-2.185 10.856-8.164 10.856-15.22 0-8.903-7.213-16.114-16.114-16.114-7.056 0-13.033 4.538-15.218 10.852C243.335 66.538 237.357 62 230.302 62s-13.037 4.542-15.22 10.859C212.899 66.542 206.919 62 199.862 62s-13.033 4.538-15.218 10.852C182.459 66.538 176.481 62 169.426 62s-13.037 4.538-15.218 10.854C152.023 66.538 146.043 62 138.988 62s-13.035 4.538-15.218 10.852C121.587 66.538 115.608 62 108.552 62s-13.037 4.542-15.218 10.856C91.151 66.542 85.17 62 78.114 62 69.213 62 62 69.21 62 78.114c0 7.056 4.542 13.035 10.856 15.218C66.542 95.515 62 101.496 62 108.552s4.54 13.033 10.852 15.218C66.54 125.953 62 131.932 62 138.988s4.54 13.033 10.854 15.218C66.54 156.389 62 162.368 62 169.426s4.54 13.037 10.852 15.216C66.54 186.829 62 192.804 62 199.862s4.542 13.037 10.859 15.22C66.542 217.265 62 223.244 62 230.302s4.54 13.033 10.852 15.216C66.54 247.705 62 253.68 62 260.738c0 8.901 7.213 16.114 16.114 16.114a16.35 16.35 0 0 0 3.249-.327c5.603-1.145 10.132-5.212 11.972-10.523 2.181 6.312 8.162 10.852 15.218 10.852s13.035-4.536 15.218-10.852c2.183 6.312 8.162 10.852 15.218 10.852s13.035-4.536 15.218-10.852c2.183 6.31 8.162 10.85 15.22 10.85s13.037-4.54 15.218-10.856c2.185 6.312 8.162 10.856 15.218 10.856s13.037-4.544 15.22-10.861c2.183 6.314 8.162 10.861 15.22 10.861s13.033-4.54 15.218-10.856c2.185 6.317 8.162 10.856 15.218 10.856 8.901 0 16.114-7.213 16.114-16.114 0-7.058-4.54-13.033-10.854-15.22 6.314-2.183 10.854-8.162 10.854-15.216s-4.54-13.037-10.861-15.22c6.314-2.183 10.861-8.162 10.861-15.22s-4.54-13.033-10.854-15.22c6.314-2.183 10.854-8.162 10.854-15.216s-4.54-13.037-10.854-15.218c6.312-2.187 10.854-8.164 10.854-15.22s-4.54-13.035-10.854-15.218c6.314-2.185 10.854-8.162 10.854-15.218zm-21.373 136.966a16.13 16.13 0 0 0-9.958 9.958c-2.185-6.312-8.162-10.852-15.218-10.852s-13.037 4.54-15.22 10.861c-2.183-6.321-8.162-10.861-15.22-10.861s-13.033 4.54-15.218 10.852c-2.185-6.312-8.162-10.852-15.218-10.852s-13.037 4.54-15.218 10.852c-2.185-6.312-8.164-10.852-15.22-10.852s-13.035 4.54-15.218 10.852c-2.183-6.312-8.162-10.852-15.218-10.852s-13.037 4.54-15.218 10.852a16.13 16.13 0 0 0-9.958-9.958c6.312-2.183 10.852-8.162 10.852-15.216s-4.544-13.037-10.861-15.22c6.319-2.183 10.861-8.162 10.861-15.22s-4.542-13.033-10.854-15.22c6.314-2.183 10.854-8.162 10.854-15.216s-4.54-13.037-10.854-15.218c6.314-2.187 10.854-8.164 10.854-15.22s-4.54-13.035-10.852-15.218c6.312-2.185 10.852-8.162 10.852-15.218s-4.542-13.037-10.856-15.218a16.13 16.13 0 0 0 9.961-9.961c2.183 6.312 8.164 10.854 15.22 10.854s13.035-4.54 15.218-10.852c2.183 6.312 8.162 10.852 15.218 10.852s13.035-4.54 15.218-10.854c2.183 6.314 8.162 10.854 15.22 10.854s13.037-4.54 15.218-10.852c2.185 6.312 8.162 10.852 15.218 10.852s13.037-4.542 15.22-10.861c2.183 6.319 8.162 10.861 15.22 10.861s13.033-4.54 15.218-10.852a16.13 16.13 0 0 0 9.961 9.958c-6.317 2.181-10.856 8.162-10.856 15.218s4.54 13.033 10.854 15.218c-6.314 2.183-10.854 8.162-10.854 15.218s4.54 13.033 10.854 15.218c-6.314 2.183-10.854 8.162-10.854 15.22s4.54 13.037 10.854 15.216c-6.314 2.187-10.854 8.162-10.854 15.22s4.54 13.037 10.861 15.22c-6.321 2.183-10.861 8.162-10.861 15.22s4.54 13.033 10.854 15.216zm827.373-136.966c0-7.056-4.54-13.037-10.856-15.218 6.317-2.185 10.856-8.164 10.856-15.22 0-8.903-7.213-16.114-16.114-16.114-7.056 0-13.033 4.538-15.218 10.852-2.185-6.314-8.162-10.852-15.218-10.852s-13.037 4.542-15.22 10.859c-2.183-6.317-8.162-10.859-15.22-10.859s-13.033 4.538-15.218 10.852C988.459 66.538 982.481 62 975.426 62s-13.037 4.538-15.218 10.854C958.023 66.538 952.043 62 944.988 62s-13.035 4.538-15.218 10.852C927.587 66.538 921.608 62 914.552 62s-13.037 4.542-15.218 10.856C897.151 66.542 891.17 62 884.114 62 875.213 62 868 69.21 868 78.114c0 7.056 4.542 13.035 10.856 15.218-6.314 2.183-10.856 8.164-10.856 15.22s4.54 13.033 10.852 15.218C872.54 125.953 868 131.932 868 138.988s4.54 13.033 10.854 15.218c-6.314 2.183-10.854 8.162-10.854 15.22s4.54 13.037 10.852 15.216c-6.312 2.187-10.852 8.162-10.852 15.22s4.542 13.037 10.859 15.22c-6.317 2.183-10.859 8.162-10.859 15.22s4.54 13.033 10.852 15.216C872.54 247.705 868 253.68 868 260.738c0 8.901 7.213 16.114 16.114 16.114a16.35 16.35 0 0 0 3.249-.327c5.603-1.145 10.132-5.212 11.972-10.523 2.181 6.312 8.162 10.852 15.218 10.852s13.035-4.536 15.218-10.852c2.183 6.312 8.162 10.852 15.218 10.852s13.035-4.536 15.218-10.852c2.183 6.31 8.162 10.85 15.22 10.85s13.037-4.54 15.218-10.856c2.185 6.312 8.162 10.856 15.218 10.856s13.037-4.544 15.22-10.861c2.183 6.314 8.162 10.861 15.22 10.861s13.033-4.54 15.218-10.856c2.185 6.317 8.162 10.856 15.218 10.856 8.901 0 16.114-7.213 16.114-16.114 0-7.058-4.54-13.033-10.854-15.22 6.314-2.183 10.854-8.162 10.854-15.216s-4.54-13.037-10.861-15.22c6.314-2.183 10.861-8.162 10.861-15.22s-4.54-13.033-10.854-15.22c6.314-2.183 10.854-8.162 10.854-15.216s-4.54-13.037-10.854-15.218c6.312-2.187 10.854-8.164 10.854-15.22s-4.54-13.035-10.854-15.218c6.314-2.185 10.854-8.162 10.854-15.218zm-21.373 136.966a16.13 16.13 0 0 0-9.958 9.958c-2.185-6.312-8.162-10.852-15.218-10.852s-13.037 4.54-15.22 10.861c-2.183-6.321-8.162-10.861-15.22-10.861s-13.033 4.54-15.218 10.852c-2.185-6.312-8.162-10.852-15.218-10.852s-13.037 4.54-15.218 10.852c-2.185-6.312-8.164-10.852-15.22-10.852s-13.035 4.54-15.218 10.852c-2.183-6.312-8.162-10.852-15.218-10.852s-13.037 4.54-15.218 10.852a16.13 16.13 0 0 0-9.958-9.958c6.312-2.183 10.852-8.162 10.852-15.216s-4.544-13.037-10.861-15.22c6.319-2.183 10.861-8.162 10.861-15.22s-4.542-13.033-10.854-15.22c6.314-2.183 10.854-8.162 10.854-15.216s-4.54-13.037-10.854-15.218c6.314-2.187 10.854-8.164 10.854-15.22s-4.54-13.035-10.852-15.218c6.312-2.185 10.852-8.162 10.852-15.218s-4.542-13.037-10.856-15.218a16.13 16.13 0 0 0 9.961-9.961c2.183 6.312 8.164 10.854 15.22 10.854s13.035-4.54 15.218-10.852c2.183 6.312 8.162 10.852 15.218 10.852s13.035-4.54 15.218-10.854c2.183 6.314 8.162 10.854 15.22 10.854s13.037-4.54 15.218-10.852c2.185 6.312 8.162 10.852 15.218 10.852s13.037-4.542 15.22-10.861c2.183 6.319 8.162 10.861 15.22 10.861s13.033-4.54 15.218-10.852a16.13 16.13 0 0 0 9.961 9.958c-6.317 2.181-10.856 8.162-10.856 15.218s4.54 13.033 10.854 15.218c-6.314 2.183-10.854 8.162-10.854 15.218s4.54 13.033 10.854 15.218c-6.314 2.183-10.854 8.162-10.854 15.22s4.54 13.037 10.854 15.216c-6.314 2.187-10.854 8.162-10.854 15.22s4.54 13.037 10.861 15.22c-6.321 2.183-10.861 8.162-10.861 15.22s4.54 13.033 10.854 15.216zM276.852 914.552c0-7.056-4.54-13.037-10.856-15.218 6.317-2.185 10.856-8.164 10.856-15.22 0-8.903-7.213-16.114-16.114-16.114-7.056 0-13.033 4.538-15.218 10.852-2.185-6.314-8.162-10.852-15.218-10.852s-13.037 4.542-15.22 10.859c-2.183-6.317-8.162-10.859-15.22-10.859s-13.033 4.538-15.218 10.852c-2.185-6.314-8.162-10.852-15.218-10.852s-13.037 4.538-15.218 10.854c-2.185-6.317-8.164-10.854-15.22-10.854s-13.035 4.538-15.218 10.852c-2.183-6.314-8.162-10.852-15.218-10.852s-13.037 4.542-15.218 10.856C91.151 872.542 85.17 868 78.114 868 69.213 868 62 875.21 62 884.114c0 7.056 4.542 13.035 10.856 15.218C66.542 901.515 62 907.496 62 914.552s4.54 13.033 10.852 15.218C66.54 931.953 62 937.932 62 944.988s4.54 13.033 10.854 15.218C66.54 962.389 62 968.368 62 975.426s4.54 13.037 10.852 15.216C66.54 992.829 62 998.804 62 1005.862s4.542 13.037 10.859 15.22c-6.317 2.183-10.859 8.162-10.859 15.22s4.54 13.033 10.852 15.216C66.54 1053.705 62 1059.68 62 1066.738c0 8.901 7.213 16.114 16.114 16.114a16.35 16.35 0 0 0 3.249-.327c5.603-1.145 10.132-5.212 11.972-10.523 2.181 6.312 8.162 10.852 15.218 10.852s13.035-4.536 15.218-10.852c2.183 6.312 8.162 10.852 15.218 10.852s13.035-4.536 15.218-10.852c2.183 6.31 8.162 10.85 15.22 10.85s13.037-4.54 15.218-10.856c2.185 6.312 8.162 10.856 15.218 10.856s13.037-4.544 15.22-10.861c2.183 6.314 8.162 10.861 15.22 10.861s13.033-4.54 15.218-10.856c2.185 6.317 8.162 10.856 15.218 10.856 8.901 0 16.114-7.213 16.114-16.114 0-7.058-4.54-13.033-10.854-15.22 6.314-2.183 10.854-8.162 10.854-15.216s-4.54-13.037-10.861-15.22c6.314-2.183 10.861-8.162 10.861-15.22s-4.54-13.033-10.854-15.22c6.314-2.183 10.854-8.162 10.854-15.216s-4.54-13.037-10.854-15.218c6.312-2.187 10.854-8.164 10.854-15.22s-4.54-13.035-10.854-15.218c6.314-2.185 10.854-8.162 10.854-15.218zm-21.373 136.966a16.13 16.13 0 0 0-9.958 9.958c-2.185-6.312-8.162-10.852-15.218-10.852s-13.037 4.54-15.22 10.861c-2.183-6.321-8.162-10.861-15.22-10.861s-13.033 4.54-15.218 10.852c-2.185-6.312-8.162-10.852-15.218-10.852s-13.037 4.54-15.218 10.852c-2.185-6.312-8.164-10.852-15.22-10.852s-13.035 4.54-15.218 10.852c-2.183-6.312-8.162-10.852-15.218-10.852s-13.037 4.54-15.218 10.852a16.13 16.13 0 0 0-9.958-9.958c6.312-2.183 10.852-8.162 10.852-15.216s-4.544-13.037-10.861-15.22c6.319-2.183 10.861-8.162 10.861-15.22s-4.542-13.033-10.854-15.22c6.314-2.183 10.854-8.162 10.854-15.216s-4.54-13.037-10.854-15.218c6.314-2.187 10.854-8.164 10.854-15.22s-4.54-13.035-10.852-15.218c6.312-2.185 10.852-8.162 10.852-15.218s-4.542-13.037-10.856-15.218a16.13 16.13 0 0 0 9.961-9.961c2.183 6.312 8.164 10.854 15.22 10.854s13.035-4.54 15.218-10.852c2.183 6.312 8.162 10.852 15.218 10.852s13.035-4.54 15.218-10.854c2.183 6.314 8.162 10.854 15.22 10.854s13.037-4.54 15.218-10.852c2.185 6.312 8.162 10.852 15.218 10.852s13.037-4.542 15.22-10.861c2.183 6.319 8.162 10.861 15.22 10.861s13.033-4.54 15.218-10.852a16.13 16.13 0 0 0 9.961 9.958c-6.317 2.181-10.856 8.162-10.856 15.218s4.54 13.033 10.854 15.218c-6.314 2.183-10.854 8.162-10.854 15.218s4.54 13.033 10.854 15.218c-6.314 2.183-10.854 8.162-10.854 15.22s4.54 13.037 10.854 15.216c-6.314 2.187-10.854 8.162-10.854 15.22s4.54 13.037 10.861 15.22c-6.321 2.183-10.861 8.162-10.861 15.22s4.54 13.033 10.854 15.216z"/><g transform="matrix(.93 0 0 .93 124 124)"><circle cx="17.33" cy="17.33" r="16.83"/><circle cx="50" cy="17.33" r="16.83"/><circle cx="82.67" cy="17.33" r="16.83"/><circle cx="17.33" cy="82.67" r="16.83"/><circle cx="50" cy="82.67" r="16.83"/><circle cx="82.67" cy="82.67" r="16.83"/><circle cx="17.33" cy="50" r="16.83"/><circle cx="50" cy="50" r="16.83"/><circle cx="82.67" cy="50" r="16.83"/></g><g transform="matrix(.93 0 0 .93 930 124)"><circle cx="17.33" cy="17.33" r="16.83"/><circle cx="50" cy="17.33" r="16.83"/><circle cx="82.67" cy="17.33" r="16.83"/><circle cx="17.33" cy="82.67" r="16.83"/><circle cx="50" cy="82.67" r="16.83"/><circle cx="82.67" cy="82.67" r="16.83"/><circle cx="17.33" cy="50" r="16.83"/><circle cx="50" cy="50" r="16.83"/><circle cx="82.67" cy="50" r="16.83"/></g><g transform="matrix(.93 0 0 .93 124 930)"><circle cx="17.33" cy="17.33" r="16.83"/><circle cx="50" cy="17.33" r="16.83"/><circle cx="82.67" cy="17.33" r="16.83"/><circle cx="17.33" cy="82.67" r="16.83"/><circle cx="50" cy="82.67" r="16.83"/><circle cx="82.67" cy="82.67" r="16.83"/><circle cx="17.33" cy="50" r="16.83"/><circle cx="50" cy="50" r="16.83"/><circle cx="82.67" cy="50" r="16.83"/></g></g><g transform="matrix(2.292488 0 0 2.292488 417.610796 403)"><svg height="148.747" width="136"><g fill="#26aee4"><path d="M83.596 46.19l-15.655 9.419-15.658-9.419V29.368L67.941 20.2l15.655 9.168zm2.134 21.029l11.344-6.552c4.777-2.768 4.813-2.827 4.813-8.235V22.958c0-4.771.021-4.992-4.401-7.615S81.511 6.872 74.392 2.811 68.38-.608 61.629 2.783c-6.837 3.975-18.724 10.101-23.131 12.593s-4.413 2.514-4.413 8.621L34.11 94.7c.073 1.224.392 2.004 1.585 2.695l14.386 7.447c1.249.695 2.297.037 2.297-1.278V68.557l26.307 17.401c4.751 2.753 4.87 2.822 4.87 7.736l.001 10.03c.08 1.499 1.199 1.655 2.091 1.206l14.446-7.32c1.263-.73 1.753-2.084 1.753-3.724l.001-10.668c.005-5.012-.073-5.042-4.372-7.53L85.648 68.84c-.845-.489-.813-1.104.082-1.621m121.073 35.37V50.074h-30.508v52.515zm17.467-54.03v55.544c0 7.685-3.725 13.856-14.904 13.856h-35.515c-11.179 0-14.905-6.171-14.905-13.856V48.559c0-7.683 3.727-13.855 14.905-13.855h35.515c11.179 0 14.904 6.172 14.904 13.855m65.792 49.838v-8.15c0-4.193-2.795-6.988-6.987-6.988h-17.116v19.678h19.561c2.444 0 4.541-2.096 4.541-4.54zm-24.103-48.672v18.399h17.116c4.192 0 6.987-2.911 6.987-7.105v-6.754c0-2.445-2.097-4.541-4.541-4.541zm42.035 53.098c0 8.383-4.076 15.137-16.185 15.137H251.52c-2.328 0-3.028-.699-3.028-3.029v-77.2c0-2.328.7-3.027 3.028-3.027h39.707c12.109 0 16.185 6.754 16.185 15.136v11.645c0 5.239-2.795 12.342-10.596 13.972v.233c8.151 1.397 11.179 7.103 11.179 12.808v14.323m70.563-.232V50.074h-30.505v52.515zm17.467-54.03v55.544c0 7.685-3.725 13.856-14.904 13.856h-35.516c-11.177 0-14.903-6.171-14.903-13.856V48.559c0-7.683 3.725-13.855 14.903-13.855h35.516c11.179 0 14.904 6.172 14.904 13.855m20.495 1.515c-2.329 0-3.028-.698-3.028-3.028v-9.315c0-2.328.699-3.027 3.028-3.027h52.165c2.329 0 3.028.699 3.028 3.027v9.315c0 2.33-.699 3.028-3.028 3.028h-17.349v64.857c0 2.329-.699 3.029-3.027 3.029h-11.412c-2.329 0-3.028-.699-3.028-3.029V50.074H416.52m87.681-15.37c2.329 0 3.028.699 3.028 3.027v77.199c0 2.329-.699 3.029-3.028 3.029h-11.409c-2.329 0-3.028-.699-3.028-3.029V37.731c0-2.328.699-3.027 3.028-3.027h11.409m44.483 19.212v7.801c0 4.193 1.512 5.241 5.588 5.474l20.727.932c11.179.464 14.905 6.287 14.905 13.971v22.009c0 7.685-3.727 13.856-14.905 13.856H543.91c-11.179 0-14.905-6.171-14.905-13.856v-5.357c0-2.446.583-3.144 2.912-3.61l11.061-2.211c2.213-.468 2.911.115 2.911 2.444v3.378c0 2.094 1.748 3.843 3.843 3.843h18.865a3.88 3.88 0 0 0 3.84-3.843v-9.315c0-3.959-1.28-5.008-5.588-5.241l-20.609-.932c-11.179-.465-14.905-6.171-14.905-13.857V48.559c0-7.683 3.727-13.855 14.905-13.855h28.06c11.179 0 14.905 6.172 14.905 13.855v4.659c0 2.445-.583 3.143-2.912 3.609l-11.295 2.211c-1.863.352-2.677 0-2.677-2.211v-2.911a3.88 3.88 0 0 0-3.843-3.842h-15.953a3.88 3.88 0 0 0-3.841 3.842m115.882 61.015c0 2.329-.696 3.029-3.025 3.029h-45.784c-2.329 0-3.029-.699-3.029-3.029v-77.2c0-2.328.7-3.027 3.029-3.027h45.76c2.329 0 3.029.699 3.029 3.027v9.315c0 2.33-.7 3.028-3.029 3.028h-31.321v18.049h28.101c2.329 0 3.027.698 3.027 3.026v9.664c0 2.329-.697 3.029-3.027 3.029h-28.101v18.747h31.345c2.329 0 3.025.699 3.025 3.026v9.315"/><path d="M135.884 104.063l.028-55.504c0-14.678-12.569-20.073-15.393-21.16-2.778-1.07-2.476-.003-2.474.411l.431 74.524c-.027.563-.154 1.664-.831 2.832a6.25 6.25 0 0 1-1.789 1.956l-44.654 23.316c-1.121.556-1.814.87-2.945.87s-1.932-.323-2.954-.84l-45.221-23.346c-.447-.317-1.196-.935-1.789-1.956a6.25 6.25 0 0 1-.831-2.832l-.025-.004.431-74.521c.002-.414.304-1.482-2.474-.411C12.57 28.487 0 33.881 0 48.559l.029 55.504.025-.003c-.001.003-1.264 9.516 8.84 16.634.495.423 1.017.851 1.591 1.288.526.327 46.715 23.962 46.715 23.962a23.17 23.17 0 0 0 11.147 2.802 23.2 23.2 0 0 0 11.117-2.915l44.9-23.445c13.028-7.191 11.52-18.324 11.52-18.324"/></g></svg></g><defs ><path id="B" d="M436.48 63.24l-1.24 27.28 27.28 1.24 1.24-27.28z"/><path id="C" d="M559.55 69.75l21.7-6.2 6.2 21.7-21.7 6.2z"/><path id="D" d="M496 96.1l27.9-3.1 3.1 27.9-27.9 3.1z"/><path id="E" d="M527 127.72l27.28-3.72 3.72 27.28-27.28 3.72z"/><path id="F" d="M562.65 125.55l-3.1 24.8 24.8 3.1 3.1-24.8z"/><path id="G" d="M806 125.55l29.45-1.55 1.55 29.45-29.45 1.55z"/><path id="H" d="M434 159.65l26.35-4.65 4.65 26.35-26.35 4.65z"/><path id="I" d="M341 222.27l25.73-5.27 5.27 25.73-25.73 5.27z"/><path id="J" d="M1027.03 837l-4.03 26.97 26.97 4.03 4.03-26.97z"/></defs></svg>