<svg xmlns="http://www.w3.org/2000/svg"
	xmlns:cc="http://creativecommons.org/ns#"
	xmlns:dc="http://purl.org/dc/elements/1.1/"
	xmlns:rdf="http://www.w3.org/1999/02/22-rdf-syntax-ns#"
	xmlns:svg="http://www.w3.org/2000/svg" viewBox="0 0 665 148.74667" height="148.74667" width="665" xml:space="preserve" id="svg2" version="1.1">
	<metadata id="metadata8">
		<rdf:RDF>
			<cc:Work rdf:about="">
				<dc:format>image/svg+xml</dc:format>
				<dc:type rdf:resource="http://purl.org/dc/dcmitype/StillImage" />
			</cc:Work>
		</rdf:RDF>
	</metadata>
	<defs id="defs6" />
	<g transform="matrix(1.3333333,0,0,-1.3333333,0,148.74667)" id="g10">
		<g transform="scale(0.1)" id="g12">
			<path id="path14" style="fill:#26aee4;fill-opacity:1;fill-rule:nonzero;stroke:none" d="M 626.973,769.18 509.559,698.535 392.121,769.18 v 126.16 l 117.438,68.762 117.414,-68.762 z m 16.004,-157.715 c 18.949,10.926 58.632,33.816 85.082,49.14 35.824,20.762 36.101,21.2 36.101,61.766 0,40.578 0,185.266 0,221.047 0,35.781 0.156,37.441 -33.008,57.112 -33.16,19.67 -119.816,63.53 -173.211,93.99 -53.394,30.46 -45.089,25.64 -95.726,0.21 -51.277,-29.81 -140.434,-75.76 -173.481,-94.45 -33.05,-18.69 -33.101,-18.854 -33.101,-64.655 0,-40.391 0.191,-530.273 0.191,-530.273 0.551,-9.18 2.938,-15.032 11.887,-20.215 0,0 100.894,-51.946 107.894,-55.852 9.364,-5.215 17.227,-0.281 17.227,9.582 0,9.531 0,246.043 0,262.559 L 590.137,470.918 c 35.629,-20.645 36.527,-21.164 36.527,-58.02 -0.043,-36.707 -0.441,-66.777 0.004,-75.222 0.598,-11.242 8.996,-12.414 15.684,-9.043 l 108.343,54.902 c 9.469,5.477 13.149,15.633 13.149,27.93 0,10.137 -0.012,55.41 0.008,80.008 0.035,37.59 -0.551,37.812 -32.789,56.476 -24.461,14.168 -68.758,39.813 -88.7,51.356 -6.336,3.664 -6.101,8.281 0.614,12.16" />
			<path id="path16" style="fill:#26aee4;fill-opacity:1;fill-rule:nonzero;stroke:none" d="M 1551.03,346.18 V 740.047 H 1322.22 V 346.18 Z m 131,405.226 V 334.824 c 0,-57.636 -27.94,-103.918 -111.78,-103.918 h -266.36 c -83.84,0 -111.79,46.282 -111.79,103.918 v 416.582 c 0,57.625 27.95,103.914 111.79,103.914 h 266.36 c 83.84,0 111.78,-46.289 111.78,-103.914" />
			<path id="path18" style="fill:#26aee4;fill-opacity:1;fill-rule:nonzero;stroke:none" d="m 2175.47,377.625 v 61.125 c 0,31.445 -20.96,52.41 -52.4,52.41 H 1994.7 V 343.574 h 146.71 c 18.33,0 34.06,15.723 34.06,34.051 z M 1994.7,742.668 V 604.676 h 128.37 c 31.44,0 52.4,21.836 52.4,53.285 v 50.652 c 0,18.34 -15.73,34.055 -34.06,34.055 z m 315.26,-398.234 c 0,-62.871 -30.57,-113.528 -121.39,-113.528 H 1886.4 c -17.46,0 -22.71,5.246 -22.71,22.715 v 578.996 c 0,17.461 5.25,22.703 22.71,22.703 h 297.8 c 90.82,0 121.39,-50.652 121.39,-113.523 v -87.336 c 0,-39.293 -20.96,-92.566 -79.47,-104.793 v -1.75 c 61.13,-10.477 83.84,-53.27 83.84,-96.063 V 344.434" />
			<path id="path20" style="fill:#26aee4;fill-opacity:1;fill-rule:nonzero;stroke:none" d="M 2839.19,346.18 V 740.047 H 2610.4 V 346.18 Z m 131,405.226 V 334.824 c 0,-57.636 -27.94,-103.918 -111.78,-103.918 h -266.37 c -83.83,0 -111.77,46.282 -111.77,103.918 v 416.582 c 0,57.625 27.94,103.914 111.77,103.914 h 266.37 c 83.84,0 111.78,-46.289 111.78,-103.914" />
			<path id="path22" style="fill:#26aee4;fill-opacity:1;fill-rule:nonzero;stroke:none" d="m 3123.91,740.047 c -17.47,0 -22.71,5.234 -22.71,22.707 v 69.863 c 0,17.461 5.24,22.703 22.71,22.703 h 391.24 c 17.47,0 22.71,-5.242 22.71,-22.703 v -69.863 c 0,-17.473 -5.24,-22.707 -22.71,-22.707 H 3385.03 V 253.621 c 0,-17.469 -5.24,-22.715 -22.7,-22.715 h -85.59 c -17.47,0 -22.71,5.246 -22.71,22.715 v 486.426 h -130.12" />
			<path id="path24" style="fill:#26aee4;fill-opacity:1;fill-rule:nonzero;stroke:none" d="m 3781.52,855.32 c 17.47,0 22.71,-5.242 22.71,-22.703 V 253.621 c 0,-17.469 -5.24,-22.715 -22.71,-22.715 h -85.57 c -17.47,0 -22.71,5.246 -22.71,22.715 v 578.996 c 0,17.461 5.24,22.703 22.71,22.703 h 85.57" />
			<path id="path26" style="fill:#26aee4;fill-opacity:1;fill-rule:nonzero;stroke:none" d="m 4115.14,711.23 v -58.507 c 0,-31.446 11.34,-39.305 41.91,-41.055 l 155.45,-6.992 c 83.84,-3.477 111.79,-47.149 111.79,-104.785 V 334.824 c 0,-57.636 -27.95,-103.918 -111.79,-103.918 h -233.17 c -83.84,0 -111.79,46.282 -111.79,103.918 V 375 c 0,18.348 4.37,23.582 21.84,27.078 l 82.96,16.582 c 16.6,3.508 21.83,-0.859 21.83,-18.328 V 375 c 0,-15.703 13.11,-28.82 28.82,-28.82 h 141.49 c 15.7,0 28.8,13.117 28.8,28.82 v 69.863 c 0,29.696 -9.6,37.559 -41.91,39.305 l -154.57,6.992 c -83.84,3.488 -111.79,46.281 -111.79,103.926 v 156.32 c 0,57.625 27.95,103.914 111.79,103.914 h 210.46 c 83.84,0 111.79,-46.289 111.79,-103.914 v -34.941 c 0,-18.34 -4.37,-23.574 -21.84,-27.07 l -84.71,-16.582 c -13.97,-2.637 -20.08,0 -20.08,16.582 v 21.835 c 0,15.723 -13.11,28.817 -28.82,28.817 h -119.65 c -15.72,0 -28.81,-13.094 -28.81,-28.817" />
			<path id="path28" style="fill:#26aee4;fill-opacity:1;fill-rule:nonzero;stroke:none" d="m 4984.26,253.621 c 0,-17.469 -5.22,-22.715 -22.69,-22.715 h -343.38 c -17.47,0 -22.72,5.246 -22.72,22.715 v 578.996 c 0,17.461 5.25,22.703 22.72,22.703 h 343.2 c 17.47,0 22.72,-5.242 22.72,-22.703 v -69.863 c 0,-17.473 -5.25,-22.707 -22.72,-22.707 H 4726.48 V 604.676 h 210.76 c 17.47,0 22.7,-5.235 22.7,-22.696 V 509.5 c 0,-17.469 -5.23,-22.715 -22.7,-22.715 H 4726.48 V 346.18 h 235.09 c 17.47,0 22.69,-5.242 22.69,-22.696 v -69.863" />
			<path id="path30" style="fill:#26aee4;fill-opacity:1;fill-rule:nonzero;stroke:none" d="m 1019.13,335.125 c -0.17,33.41 0.21,116.68 0.21,416.281 0,110.086 -94.27,150.547 -115.445,158.699 -20.836,8.028 -18.571,0.02 -18.555,-3.085 0.078,-15 3.234,-558.934 3.234,-558.934 -0.199,-4.219 -1.152,-12.481 -6.234,-21.242 -4.445,-7.656 -10.067,-12.293 -13.418,-14.668 0,0 -326.496,-170.692 -334.906,-174.871 -8.407,-4.172 -13.606,-6.524 -22.09,-6.524 -8.485,0 -14.492,2.422 -22.156,6.297 -7.668,3.867 -339.161,175.098 -339.161,175.098 -3.355,2.375 -8.972,7.012 -13.418,14.668 -5.078,8.761 -6.035,17.023 -6.234,21.242 0,0 -0.121,0.019 -0.184,0.027 0.008,1.125 3.157,543.93 3.235,558.907 0.015,3.105 2.281,11.113 -18.555,3.085 C 94.2773,901.953 0,861.492 0,751.406 0,451.805 0.382813,368.535 0.214844,335.125 l 0.1875,0.02 c 0,-0.008 -0.003906,-0.008 -0.003906,-0.02 0,0 -9.476568,-71.348 66.300762,-124.734 3.711,-3.176 7.6289,-6.379 11.9336,-9.661 0.0039,0 0.0039,0 0.0039,0 C 82.5781,198.281 428.996,21.0117 428.996,21.0117 442.582,13.6211 472.395,-0.210938 512.598,0 c 40.203,0.199219 69.871,14.3516 83.379,21.8594 l 336.75,175.8356 c 97.713,53.934 86.403,137.43 86.403,137.43" />
		</g>
	</g>
</svg>